<svg width="184" height="66" viewBox="0 0 184 66" fill="none" xmlns="http://www.w3.org/2000/svg">
<path d="M24.9057 54.0696C24.9057 52.1501 25.3295 50.3476 26.1777 48.6631C27.0251 46.9783 28.2548 45.6186 29.8662 44.5837C31.4769 43.5487 33.3641 43.0314 35.5265 43.0314C37.8369 43.0314 39.8722 43.6508 41.6323 44.8874C43.3917 46.1246 44.6533 47.7455 45.4165 49.7504L45.6393 50.3265L40.2014 50.4228L40.0426 50.1983C39.5338 49.4303 38.8872 48.8335 38.103 48.4067C37.3184 47.9806 36.4598 47.767 35.5268 47.767C34.3606 47.767 33.3591 48.0656 32.5221 48.6631C31.6841 49.2607 31.0483 50.0384 30.6143 50.9982C30.1796 51.9579 29.9622 52.9823 29.9622 54.0696C29.9622 55.1568 30.1796 56.1816 30.6143 57.1417C31.0483 58.1014 31.6899 58.8745 32.538 59.4611C33.3854 60.0478 34.3823 60.3409 35.5272 60.3409C36.7566 60.3409 37.8275 59.9886 38.7392 59.2849C39.6505 58.5813 40.3184 57.6641 40.7427 56.5336H35.0503V51.9899H45.9578L46.0209 52.3742C46.1054 52.8646 46.1484 53.4295 46.1484 54.0696C46.1484 55.989 45.7242 57.7919 44.8764 59.4767C44.0283 61.1619 42.8039 62.522 41.2037 63.5562C39.6028 64.5911 37.7109 65.1077 35.5272 65.1077C33.3648 65.1077 31.4776 64.5908 29.8669 63.5562C28.2555 62.522 27.0258 61.1565 26.1784 59.4611C25.3303 57.765 24.9064 55.9687 24.9064 54.0696H24.9057Z" fill="#F2EDE6"/>
<path d="M53.8115 43.4477H68.344C69.7005 43.4477 70.8562 43.7464 71.8105 44.3439C72.7647 44.9415 73.48 45.7356 73.9569 46.7273C74.4339 47.719 74.6726 48.8019 74.6726 49.9749C74.6726 51.4897 74.2588 52.8225 73.4323 53.974C72.6059 55.1256 71.4288 55.8514 69.9026 56.1493C69.9449 56.2135 69.9925 56.2775 70.0456 56.3418C70.0983 56.4054 70.1464 56.4911 70.189 56.5975L75.0228 64.6925H69.5214L64.5605 56.3094H58.6774V64.6925H53.8122V43.4481L53.8115 43.4477ZM58.6767 51.7981H68.344C68.8101 51.7981 69.1708 51.6495 69.4253 51.3502C69.6795 51.0519 69.8066 50.668 69.8066 50.1986V49.5905C69.8066 49.1005 69.6795 48.7107 69.4253 48.4234C69.1708 48.1353 68.8101 47.9911 68.344 47.9911H58.6767V51.7981Z" fill="#F2EDE6"/>
<path d="M80.8412 54.0696C80.8412 52.1501 81.2651 50.3476 82.1132 48.6631C82.9606 46.9783 84.1904 45.6186 85.8018 44.5837C87.4124 43.5487 89.2997 43.0314 91.462 43.0314C93.6244 43.0314 95.5113 43.5487 97.1227 44.5837C98.7333 45.6186 99.9631 46.9783 100.811 48.6631C101.659 50.3479 102.083 52.1501 102.083 54.0696C102.083 55.9687 101.659 57.765 100.811 59.4611C99.9631 61.1565 98.7333 62.522 97.1227 63.5562C95.5113 64.5911 93.6248 65.1077 91.462 65.1077C89.2993 65.1077 87.4124 64.5908 85.8018 63.5562C84.1904 62.522 82.9606 61.1565 82.1132 59.4611C81.2651 57.765 80.8412 55.9687 80.8412 54.0696ZM85.8974 54.0696C85.8974 55.1575 86.1148 56.1816 86.5495 57.1417C86.9835 58.1014 87.6251 58.8745 88.4732 59.4611C89.3206 60.0478 90.3175 60.3409 91.4624 60.3409C92.6073 60.3409 93.6035 60.0478 94.4516 59.4611C95.2993 58.8745 95.9463 58.1014 96.3912 57.1417C96.8364 56.1819 97.0591 55.1575 97.0591 54.0696C97.0591 52.9816 96.8364 51.9579 96.3912 50.9982C95.946 50.0384 95.3044 49.2603 94.4675 48.6631C93.6298 48.0656 92.6282 47.767 91.4624 47.767C90.2965 47.767 89.2946 48.0656 88.4577 48.6631C87.6197 49.2607 86.9838 50.0384 86.5499 50.9982C86.1151 51.9579 85.8974 52.9823 85.8974 54.0696Z" fill="#F2EDE6"/>
<path d="M113.754 43.4477V54.4859C113.754 55.4888 113.945 56.4373 114.327 57.3335C114.708 58.2289 115.275 58.9544 116.028 59.5087C116.78 60.0638 117.687 60.3409 118.747 60.3409C119.785 60.3409 120.681 60.0634 121.434 59.5087C122.186 58.9544 122.759 58.2289 123.151 57.3335C123.543 56.4373 123.739 55.4888 123.739 54.4859V43.4477H128.605V54.4859C128.605 56.2568 128.218 57.9572 127.444 59.5886C126.67 61.2208 125.541 62.5481 124.057 63.5722C122.574 64.5959 120.803 65.1077 118.747 65.1077C116.69 65.1077 114.92 64.6017 113.436 63.5878C111.952 62.5754 110.823 61.2527 110.05 59.621C109.275 57.9888 108.889 56.2771 108.889 54.4855V43.4474L113.754 43.4477Z" fill="#F2EDE6"/>
<path d="M137.279 43.4477H151.812C153.168 43.4477 154.324 43.7464 155.278 44.3439C156.233 44.9415 156.948 45.7356 157.425 46.7273C157.902 47.719 158.14 48.8019 158.14 49.9749C158.14 51.1478 157.891 52.2144 157.393 53.1741C156.895 54.1339 156.169 54.8971 155.215 55.462C154.261 56.0268 153.126 56.3094 151.812 56.3094H142.145V64.6925H137.28V43.4481L137.279 43.4477ZM142.145 51.7981H151.812C152.278 51.7981 152.639 51.6495 152.894 51.3502C153.148 51.0519 153.275 50.668 153.275 50.1986V49.5905C153.275 49.1005 153.148 48.7107 152.894 48.4234C152.639 48.1353 152.278 47.9911 151.812 47.9911H142.145V51.7981Z" fill="#F2EDE6"/>
<path d="M0 27.9804C0 26.0609 0.42388 24.2584 1.272 22.5735C2.1194 20.8887 3.34916 19.529 4.96055 18.4941C6.57122 17.4595 8.45846 16.9422 10.6208 16.9422C12.5286 16.9422 14.2303 17.3476 15.7251 18.1581C17.2195 18.9692 18.4279 20.0674 19.3501 21.4536C20.2726 22.8402 20.8607 24.3761 21.1149 26.0605L21.1785 26.5404H16.0905L16.0269 26.2203C15.7088 24.8766 15.073 23.7839 14.1191 22.9408C13.1652 22.0984 11.999 21.677 10.6212 21.677C9.45498 21.677 8.45341 21.976 7.61648 22.5732C6.77847 23.1708 6.14265 23.9489 5.70866 24.9086C5.27395 25.8683 5.05659 26.8924 5.05659 27.98C5.05659 29.0676 5.27395 30.0916 5.70866 31.0518C6.14265 32.0115 6.78425 32.7849 7.63237 33.3712C8.47977 33.9579 9.47664 34.251 10.6216 34.251C11.9993 34.251 13.1656 33.83 14.1195 32.9872C15.0734 32.1448 15.7096 31.0517 16.0273 29.7077L16.0908 29.3557H21.1788L21.1153 29.8355C20.8611 31.5425 20.2729 33.0886 19.3504 34.4748C18.4283 35.8617 17.2199 36.9657 15.7254 37.7863C14.2307 38.6073 12.5294 39.0181 10.6212 39.0181C8.45882 39.0181 6.57158 38.5012 4.96091 37.4666C3.34952 36.432 2.11976 35.0669 1.27236 33.3715C0.424241 31.6755 0.000361056 29.8791 0.000361056 27.9804H0Z" fill="#F2EDE6"/>
<path d="M31.2942 17.3582V28.3963C31.2942 29.3993 31.4852 30.3481 31.8668 31.2439C32.2481 32.1397 32.8153 32.8652 33.5681 33.4195C34.3202 33.9746 35.2268 34.2514 36.2869 34.2514C37.3253 34.2514 38.2214 33.9742 38.9742 33.4195C39.7263 32.8652 40.2989 32.1397 40.6914 31.2439C41.0831 30.3481 41.2796 29.3993 41.2796 28.3963V17.3582H46.1448V28.3963C46.1448 30.1672 45.7577 31.868 44.9844 33.4994C44.2102 35.1312 43.0812 36.4589 41.5976 37.483C40.1137 38.507 38.3431 39.0185 36.2869 39.0185C34.2307 39.0185 32.46 38.5121 30.9761 37.4986C29.4922 36.4858 28.3631 35.1632 27.5897 33.5314C26.8156 31.8996 26.429 30.1879 26.429 28.3959V17.3578L31.2942 17.3582Z" fill="#F2EDE6"/>
<path d="M57.5542 34.0915H69.2567V38.6025H52.6886V17.3582H57.5538L57.5542 34.0915Z" fill="#F2EDE6"/>
<path d="M78.9139 38.6025H74.0487V17.3582H78.9139V38.6025Z" fill="#F2EDE6"/>
<path d="M101.218 30.6042V17.3585H106.052V38.6029H101.823L90.4381 25.3572V38.6029H85.5728V17.3585H89.7705L101.218 30.6042Z" fill="#F2EDE6"/>
<path d="M125.577 17.3582L133.94 38.6025H128.693L126.658 33.3875H117.849L115.846 38.6025H110.663L119.058 17.3582H125.577ZM119.535 28.8762H125.005L122.206 22.1256L119.535 28.8762Z" fill="#F2EDE6"/>
<path d="M138.234 17.3582H152.766C154.123 17.3582 155.278 17.6571 156.233 18.2543C157.187 18.8519 157.902 19.646 158.379 20.6377C158.856 21.6298 159.095 22.7123 159.095 23.8853C159.095 25.4001 158.681 26.7329 157.854 27.8845C157.028 29.036 155.851 29.7618 154.325 30.06C154.367 30.124 154.415 30.1883 154.468 30.2522C154.52 30.3158 154.569 30.4015 154.611 30.5079L159.445 38.6025H153.944L148.983 30.2199H143.1V38.6025H138.234V17.3582H138.234ZM143.099 25.7089H152.766C153.232 25.7089 153.593 25.5599 153.847 25.261C154.102 24.9627 154.229 24.5788 154.229 24.1094V23.5013C154.229 23.0109 154.102 22.6215 153.847 22.3338C153.593 22.0457 153.232 21.9015 152.766 21.9015H143.099V25.7089Z" fill="#F2EDE6"/>
<path d="M175.446 31.1157V38.6025H170.612V31.1157L162.058 17.3582H167.655L173.061 26.3489L178.34 17.3582H184L175.446 31.1157H175.446Z" fill="#F2EDE6"/>
<path d="M82.7974 0V2.21736H78.1113V12.3738H75.7774V2.21736H71.0916V0H82.7974Z" fill="#F2EDE6"/>
<path d="M98.8612 0V12.3738H96.5092V7.28634H89.508V12.3738H87.1557V0H89.508V5.06898H96.5092V0H98.8612Z" fill="#F2EDE6"/>
<path d="M106.657 5.06898H113.436V7.28634H106.657V10.1376H115.751V12.3738H104.304V0H115.751V2.21736H106.657V5.06898Z" fill="#F2EDE6"/>
</svg>
